STARTFONT 2.1
FONT -FontForge-04b20-Book-R-Normal--8-80-75-75-P-90-ISO10646-1
SIZE 8 75 75
FONTBOUNDINGBOX 10 8 0 0
COMMENT "Generated by fontforge, http://fontforge.sourceforge.net"
COMMENT "1999-2003 / yuji oshimoo / 04@dsg4.com / www.04.jp.org"
STARTPROPERTIES 39
FOUNDRY "FontForge"
FAMILY_NAME "04b20"
WEIGHT_NAME "Book"
SLANT "R"
SETWIDTH_NAME "Normal"
ADD_STYLE_NAME ""
PIXEL_SIZE 8
POINT_SIZE 80
RESOLUTION_X 75
RESOLUTION_Y 75
SPACING "P"
AVERAGE_WIDTH 90
CHARSET_REGISTRY "ISO10646"
CHARSET_ENCODING "1"
FONTNAME_REGISTRY ""
CHARSET_COLLECTIONS "ISO10646-1"
FONT_NAME "04b20"
FACE_NAME "04b20"
COPYRIGHT "1999-2003 / yuji oshimoo / 04@dsg4.com / www.04.jp.org"
FONT_VERSION "Macromedia Fonographer 4.1J 03.3.25"
FONT_ASCENT 8
FONT_DESCENT 0
UNDERLINE_POSITION -1
UNDERLINE_THICKNESS 1
X_HEIGHT 7
CAP_HEIGHT 7
RAW_ASCENT 1000
RAW_DESCENT 0
NORM_SPACE 6
RELATIVE_WEIGHT 40
RELATIVE_SETWIDTH 50
SUPERSCRIPT_X 0
SUPERSCRIPT_Y 3
SUPERSCRIPT_SIZE 5
SUBSCRIPT_X 0
SUBSCRIPT_Y 1
SUBSCRIPT_SIZE 5
AVG_LOWERCASE_WIDTH 103
AVG_UPPERCASE_WIDTH 106
ENDPROPERTIES
CHARS 99
STARTCHAR space
ENCODING 32
SWIDTH 750 0
DWIDTH 6 0
BBX 1 1 0 0
BITMAP
00
ENDCHAR
STARTCHAR exclam
ENCODING 33
SWIDTH 375 0
DWIDTH 3 0
BBX 2 8 0 0
BITMAP
C0
C0
C0
C0
C0
00
C0
C0
ENDCHAR
STARTCHAR quotedbl
ENCODING 34
SWIDTH 750 0
DWIDTH 6 0
BBX 5 4 0 4
BITMAP
D8
D8
D8
D8
ENDCHAR
STARTCHAR numbersign
ENCODING 35
SWIDTH 1375 0
DWIDTH 11 0
BBX 10 8 0 0
BITMAP
3300
FFC0
FFC0
3300
3300
FFC0
FFC0
3300
ENDCHAR
STARTCHAR dollar
ENCODING 36
SWIDTH 1375 0
DWIDTH 11 0
BBX 10 8 0 0
BITMAP
7FC0
FFC0
CC00
FF80
7FC0
0CC0
FFC0
FF80
ENDCHAR
STARTCHAR percent
ENCODING 37
SWIDTH 1375 0
DWIDTH 11 0
BBX 10 8 0 0
BITMAP
E180
E380
E700
0E00
1C00
39C0
71C0
61C0
ENDCHAR
STARTCHAR ampersand
ENCODING 38
SWIDTH 1375 0
DWIDTH 11 0
BBX 10 8 0 0
BITMAP
7E00
FF00
C300
7EC0
7FC0
C380
FFC0
7EC0
ENDCHAR
STARTCHAR quotesingle
ENCODING 39
SWIDTH 375 0
DWIDTH 3 0
BBX 2 4 0 4
BITMAP
C0
C0
C0
C0
ENDCHAR
STARTCHAR parenleft
ENCODING 40
SWIDTH 625 0
DWIDTH 5 0
BBX 4 8 0 0
BITMAP
30
70
E0
C0
C0
E0
70
30
ENDCHAR
STARTCHAR parenright
ENCODING 41
SWIDTH 625 0
DWIDTH 5 0
BBX 4 8 0 0
BITMAP
C0
E0
70
30
30
70
E0
C0
ENDCHAR
STARTCHAR asterisk
ENCODING 42
SWIDTH 750 0
DWIDTH 6 0
BBX 5 5 0 3
BITMAP
D8
F8
70
F8
D8
ENDCHAR
STARTCHAR plus
ENCODING 43
SWIDTH 1375 0
DWIDTH 11 0
BBX 10 8 0 0
BITMAP
0C00
0C00
0C00
FFC0
FFC0
0C00
0C00
0C00
ENDCHAR
STARTCHAR comma
ENCODING 44
SWIDTH 375 0
DWIDTH 3 0
BBX 2 4 0 0
BITMAP
C0
C0
C0
C0
ENDCHAR
STARTCHAR hyphen
ENCODING 45
SWIDTH 1375 0
DWIDTH 11 0
BBX 10 2 0 3
BITMAP
FFC0
FFC0
ENDCHAR
STARTCHAR period
ENCODING 46
SWIDTH 375 0
DWIDTH 3 0
BBX 2 2 0 0
BITMAP
C0
C0
ENDCHAR
STARTCHAR slash
ENCODING 47
SWIDTH 1125 0
DWIDTH 9 0
BBX 8 8 0 0
BITMAP
03
07
0E
1C
38
70
E0
C0
ENDCHAR
STARTCHAR zero
ENCODING 48
SWIDTH 1375 0
DWIDTH 11 0
BBX 10 8 0 0
BITMAP
7F80
FFC0
C0C0
C0C0
C0C0
C0C0
FFC0
7F80
ENDCHAR
STARTCHAR one
ENCODING 49
SWIDTH 625 0
DWIDTH 5 0
BBX 4 8 0 0
BITMAP
E0
F0
30
30
30
30
30
30
ENDCHAR
STARTCHAR two
ENCODING 50
SWIDTH 1375 0
DWIDTH 11 0
BBX 10 8 0 0
BITMAP
FF80
FFC0
00C0
7FC0
FF80
C000
FFC0
FFC0
ENDCHAR
STARTCHAR three
ENCODING 51
SWIDTH 1375 0
DWIDTH 11 0
BBX 10 8 0 0
BITMAP
FF80
FFC0
00C0
7FC0
7FC0
00C0
FFC0
FF80
ENDCHAR
STARTCHAR four
ENCODING 52
SWIDTH 1375 0
DWIDTH 11 0
BBX 10 8 0 0
BITMAP
C300
C300
C300
C300
FFC0
7FC0
0300
0300
ENDCHAR
STARTCHAR five
ENCODING 53
SWIDTH 1375 0
DWIDTH 11 0
BBX 10 8 0 0
BITMAP
FFC0
FFC0
C000
FF80
FFC0
00C0
FFC0
FF80
ENDCHAR
STARTCHAR six
ENCODING 54
SWIDTH 1375 0
DWIDTH 11 0
BBX 10 8 0 0
BITMAP
7F80
FF80
C000
FF80
FFC0
C0C0
FFC0
7F80
ENDCHAR
STARTCHAR seven
ENCODING 55
SWIDTH 1375 0
DWIDTH 11 0
BBX 10 8 0 0
BITMAP
FF80
FFC0
00C0
00C0
00C0
00C0
00C0
00C0
ENDCHAR
STARTCHAR eight
ENCODING 56
SWIDTH 1375 0
DWIDTH 11 0
BBX 10 8 0 0
BITMAP
7F80
FFC0
C0C0
FFC0
FFC0
C0C0
FFC0
7F80
ENDCHAR
STARTCHAR nine
ENCODING 57
SWIDTH 1375 0
DWIDTH 11 0
BBX 10 8 0 0
BITMAP
7F80
FFC0
C0C0
FFC0
7FC0
00C0
7FC0
7F80
ENDCHAR
STARTCHAR colon
ENCODING 58
SWIDTH 375 0
DWIDTH 3 0
BBX 2 6 0 1
BITMAP
C0
C0
00
00
C0
C0
ENDCHAR
STARTCHAR semicolon
ENCODING 59
SWIDTH 375 0
DWIDTH 3 0
BBX 2 7 0 0
BITMAP
C0
C0
00
00
C0
C0
C0
ENDCHAR
STARTCHAR less
ENCODING 60
SWIDTH 750 0
DWIDTH 6 0
BBX 5 8 0 0
BITMAP
18
38
70
E0
E0
70
38
18
ENDCHAR
STARTCHAR equal
ENCODING 61
SWIDTH 1375 0
DWIDTH 11 0
BBX 10 6 0 1
BITMAP
FFC0
FFC0
0000
0000
FFC0
FFC0
ENDCHAR
STARTCHAR greater
ENCODING 62
SWIDTH 750 0
DWIDTH 6 0
BBX 5 8 0 0
BITMAP
C0
E0
70
38
38
70
E0
C0
ENDCHAR
STARTCHAR question
ENCODING 63
SWIDTH 1375 0
DWIDTH 11 0
BBX 10 8 0 0
BITMAP
7F80
FFC0
C0C0
0FC0
0F80
0000
0C00
0C00
ENDCHAR
STARTCHAR at
ENCODING 64
SWIDTH 1375 0
DWIDTH 11 0
BBX 10 8 0 0
BITMAP
7F80
FFC0
C0C0
DFC0
DFC0
D8C0
FFC0
7F80
ENDCHAR
STARTCHAR A
ENCODING 65
SWIDTH 1375 0
DWIDTH 11 0
BBX 10 8 0 0
BITMAP
7F80
FFC0
C0C0
FFC0
FFC0
C0C0
C0C0
C0C0
ENDCHAR
STARTCHAR B
ENCODING 66
SWIDTH 1375 0
DWIDTH 11 0
BBX 10 8 0 0
BITMAP
FF80
FFC0
C0C0
FFC0
FFC0
C0C0
FFC0
FF80
ENDCHAR
STARTCHAR C
ENCODING 67
SWIDTH 1375 0
DWIDTH 11 0
BBX 10 8 0 0
BITMAP
7FC0
FFC0
C000
C000
C000
C000
FFC0
7FC0
ENDCHAR
STARTCHAR D
ENCODING 68
SWIDTH 1375 0
DWIDTH 11 0
BBX 10 8 0 0
BITMAP
FF80
FFC0
C0C0
C0C0
C0C0
C0C0
FFC0
FF80
ENDCHAR
STARTCHAR E
ENCODING 69
SWIDTH 1375 0
DWIDTH 11 0
BBX 10 8 0 0
BITMAP
7FC0
FFC0
C000
FFC0
FFC0
C000
FFC0
7FC0
ENDCHAR
STARTCHAR F
ENCODING 70
SWIDTH 1375 0
DWIDTH 11 0
BBX 10 8 0 0
BITMAP
7FC0
FFC0
C000
FFC0
FFC0
C000
C000
C000
ENDCHAR
STARTCHAR G
ENCODING 71
SWIDTH 1375 0
DWIDTH 11 0
BBX 10 8 0 0
BITMAP
7FC0
FFC0
C000
CFC0
CFC0
C0C0
FFC0
7FC0
ENDCHAR
STARTCHAR H
ENCODING 72
SWIDTH 1375 0
DWIDTH 11 0
BBX 10 8 0 0
BITMAP
C0C0
C0C0
C0C0
FFC0
FFC0
C0C0
C0C0
C0C0
ENDCHAR
STARTCHAR I
ENCODING 73
SWIDTH 375 0
DWIDTH 3 0
BBX 2 8 0 0
BITMAP
C0
C0
C0
C0
C0
C0
C0
C0
ENDCHAR
STARTCHAR J
ENCODING 74
SWIDTH 1375 0
DWIDTH 11 0
BBX 10 8 0 0
BITMAP
00C0
00C0
00C0
00C0
C0C0
C0C0
FFC0
7F80
ENDCHAR
STARTCHAR K
ENCODING 75
SWIDTH 1375 0
DWIDTH 11 0
BBX 10 8 0 0
BITMAP
C0C0
C1C0
C380
FF00
FF00
C380
C1C0
C0C0
ENDCHAR
STARTCHAR L
ENCODING 76
SWIDTH 1375 0
DWIDTH 11 0
BBX 10 8 0 0
BITMAP
C000
C000
C000
C000
C000
C000
FFC0
7FC0
ENDCHAR
STARTCHAR M
ENCODING 77
SWIDTH 1375 0
DWIDTH 11 0
BBX 10 8 0 0
BITMAP
C0C0
E1C0
F3C0
FFC0
DEC0
CCC0
C0C0
C0C0
ENDCHAR
STARTCHAR N
ENCODING 78
SWIDTH 1375 0
DWIDTH 11 0
BBX 10 8 0 0
BITMAP
E0C0
F0C0
F8C0
DCC0
CEC0
C7C0
C3C0
C1C0
ENDCHAR
STARTCHAR O
ENCODING 79
SWIDTH 1375 0
DWIDTH 11 0
BBX 10 8 0 0
BITMAP
7F80
FFC0
C0C0
C0C0
C0C0
C0C0
FFC0
7F80
ENDCHAR
STARTCHAR P
ENCODING 80
SWIDTH 1375 0
DWIDTH 11 0
BBX 10 8 0 0
BITMAP
FF80
FFC0
C0C0
C0C0
FFC0
FF80
C000
C000
ENDCHAR
STARTCHAR Q
ENCODING 81
SWIDTH 1375 0
DWIDTH 11 0
BBX 10 8 0 0
BITMAP
7F00
FF80
C180
C180
C180
C180
FFC0
7FC0
ENDCHAR
STARTCHAR R
ENCODING 82
SWIDTH 1375 0
DWIDTH 11 0
BBX 10 8 0 0
BITMAP
FF80
FFC0
C0C0
C0C0
FF80
FF80
C1C0
C0C0
ENDCHAR
STARTCHAR S
ENCODING 83
SWIDTH 1375 0
DWIDTH 11 0
BBX 10 8 0 0
BITMAP
7FC0
FFC0
C000
FF80
7FC0
00C0
FFC0
FF80
ENDCHAR
STARTCHAR T
ENCODING 84
SWIDTH 1375 0
DWIDTH 11 0
BBX 10 8 0 0
BITMAP
FFC0
FFC0
0C00
0C00
0C00
0C00
0C00
0C00
ENDCHAR
STARTCHAR U
ENCODING 85
SWIDTH 1375 0
DWIDTH 11 0
BBX 10 8 0 0
BITMAP
C0C0
C0C0
C0C0
C0C0
C0C0
C0C0
FFC0
7F80
ENDCHAR
STARTCHAR V
ENCODING 86
SWIDTH 1375 0
DWIDTH 11 0
BBX 10 8 0 0
BITMAP
C0C0
C0C0
C0C0
E1C0
7380
3F00
1E00
0C00
ENDCHAR
STARTCHAR W
ENCODING 87
SWIDTH 1375 0
DWIDTH 11 0
BBX 10 8 0 0
BITMAP
C0C0
C0C0
CCC0
DEC0
FFC0
F3C0
E1C0
C0C0
ENDCHAR
STARTCHAR X
ENCODING 88
SWIDTH 1375 0
DWIDTH 11 0
BBX 10 8 0 0
BITMAP
C0C0
E1C0
7380
3F00
3F00
7380
E1C0
C0C0
ENDCHAR
STARTCHAR Y
ENCODING 89
SWIDTH 1375 0
DWIDTH 11 0
BBX 10 8 0 0
BITMAP
C0C0
C0C0
C0C0
FFC0
7FC0
00C0
7FC0
7F80
ENDCHAR
STARTCHAR Z
ENCODING 90
SWIDTH 1375 0
DWIDTH 11 0
BBX 10 8 0 0
BITMAP
FFC0
FFC0
00C0
7FC0
FF80
C000
FFC0
FFC0
ENDCHAR
STARTCHAR bracketleft
ENCODING 91
SWIDTH 625 0
DWIDTH 5 0
BBX 4 8 0 0
BITMAP
F0
F0
C0
C0
C0
C0
F0
F0
ENDCHAR
STARTCHAR backslash
ENCODING 92
SWIDTH 1125 0
DWIDTH 9 0
BBX 8 8 0 0
BITMAP
C0
E0
70
38
1C
0E
07
03
ENDCHAR
STARTCHAR bracketright
ENCODING 93
SWIDTH 625 0
DWIDTH 5 0
BBX 4 8 0 0
BITMAP
F0
F0
30
30
30
30
F0
F0
ENDCHAR
STARTCHAR asciicircum
ENCODING 94
SWIDTH 750 0
DWIDTH 6 0
BBX 5 3 0 5
BITMAP
70
F8
D8
ENDCHAR
STARTCHAR underscore
ENCODING 95
SWIDTH 1375 0
DWIDTH 11 0
BBX 10 2 0 0
BITMAP
FFC0
FFC0
ENDCHAR
STARTCHAR grave
ENCODING 96
SWIDTH 500 0
DWIDTH 4 0
BBX 3 3 0 5
BITMAP
C0
E0
60
ENDCHAR
STARTCHAR a
ENCODING 97
SWIDTH 1375 0
DWIDTH 11 0
BBX 10 8 0 0
BITMAP
7F80
7FC0
00C0
7FC0
FFC0
C0C0
FFC0
7FC0
ENDCHAR
STARTCHAR b
ENCODING 98
SWIDTH 1375 0
DWIDTH 11 0
BBX 10 8 0 0
BITMAP
C000
C000
FF80
FFC0
C0C0
C0C0
FFC0
FF80
ENDCHAR
STARTCHAR c
ENCODING 99
SWIDTH 1375 0
DWIDTH 11 0
BBX 10 8 0 0
BITMAP
7FC0
FFC0
C000
C000
C000
C000
FFC0
7FC0
ENDCHAR
STARTCHAR d
ENCODING 100
SWIDTH 1375 0
DWIDTH 11 0
BBX 10 8 0 0
BITMAP
00C0
00C0
7FC0
FFC0
C0C0
C0C0
FFC0
7FC0
ENDCHAR
STARTCHAR e
ENCODING 101
SWIDTH 1375 0
DWIDTH 11 0
BBX 10 8 0 0
BITMAP
7F80
FFC0
C0C0
FFC0
FFC0
C000
FF80
7F80
ENDCHAR
STARTCHAR f
ENCODING 102
SWIDTH 1375 0
DWIDTH 11 0
BBX 10 8 0 0
BITMAP
1FC0
3FC0
3000
FFC0
FFC0
3000
3000
3000
ENDCHAR
STARTCHAR g
ENCODING 103
SWIDTH 1375 0
DWIDTH 11 0
BBX 10 8 0 0
BITMAP
7FC0
FFC0
C0C0
FFC0
7FC0
00C0
7FC0
7F80
ENDCHAR
STARTCHAR h
ENCODING 104
SWIDTH 1375 0
DWIDTH 11 0
BBX 10 8 0 0
BITMAP
C000
C000
FF80
FFC0
C0C0
C0C0
C0C0
C0C0
ENDCHAR
STARTCHAR i
ENCODING 105
SWIDTH 375 0
DWIDTH 3 0
BBX 2 8 0 0
BITMAP
C0
C0
00
C0
C0
C0
C0
C0
ENDCHAR
STARTCHAR j
ENCODING 106
SWIDTH 1375 0
DWIDTH 11 0
BBX 10 8 0 0
BITMAP
00C0
00C0
0000
00C0
C0C0
C0C0
FFC0
7F80
ENDCHAR
STARTCHAR k
ENCODING 107
SWIDTH 1375 0
DWIDTH 11 0
BBX 10 8 0 0
BITMAP
C0C0
C0C0
C0C0
FFC0
FF80
C300
C300
C300
ENDCHAR
STARTCHAR l
ENCODING 108
SWIDTH 375 0
DWIDTH 3 0
BBX 2 8 0 0
BITMAP
C0
C0
C0
C0
C0
C0
C0
C0
ENDCHAR
STARTCHAR m
ENCODING 109
SWIDTH 1375 0
DWIDTH 11 0
BBX 10 8 0 0
BITMAP
FF80
FFC0
CCC0
CCC0
CCC0
CCC0
CCC0
CCC0
ENDCHAR
STARTCHAR n
ENCODING 110
SWIDTH 1375 0
DWIDTH 11 0
BBX 10 8 0 0
BITMAP
FF80
FFC0
C0C0
C0C0
C0C0
C0C0
C0C0
C0C0
ENDCHAR
STARTCHAR o
ENCODING 111
SWIDTH 1375 0
DWIDTH 11 0
BBX 10 8 0 0
BITMAP
7F80
FFC0
C0C0
C0C0
C0C0
C0C0
FFC0
7F80
ENDCHAR
STARTCHAR p
ENCODING 112
SWIDTH 1375 0
DWIDTH 11 0
BBX 10 8 0 0
BITMAP
FF80
FFC0
C0C0
C0C0
FFC0
FF80
C000
C000
ENDCHAR
STARTCHAR q
ENCODING 113
SWIDTH 1375 0
DWIDTH 11 0
BBX 10 8 0 0
BITMAP
7FC0
FFC0
C0C0
C0C0
FFC0
7FC0
00C0
00C0
ENDCHAR
STARTCHAR r
ENCODING 114
SWIDTH 1375 0
DWIDTH 11 0
BBX 10 8 0 0
BITMAP
7FC0
FFC0
C000
C000
C000
C000
C000
C000
ENDCHAR
STARTCHAR s
ENCODING 115
SWIDTH 1375 0
DWIDTH 11 0
BBX 10 8 0 0
BITMAP
7FC0
FFC0
C000
FF80
7FC0
00C0
FFC0
FF80
ENDCHAR
STARTCHAR t
ENCODING 116
SWIDTH 1375 0
DWIDTH 11 0
BBX 10 8 0 0
BITMAP
3000
3000
FFC0
FFC0
3000
3000
3FC0
1FC0
ENDCHAR
STARTCHAR u
ENCODING 117
SWIDTH 1375 0
DWIDTH 11 0
BBX 10 8 0 0
BITMAP
C0C0
C0C0
C0C0
C0C0
C0C0
C0C0
FFC0
7F80
ENDCHAR
STARTCHAR v
ENCODING 118
SWIDTH 1375 0
DWIDTH 11 0
BBX 10 8 0 0
BITMAP
C0C0
C0C0
C0C0
C0C0
C0C0
C0C0
FFC0
FF80
ENDCHAR
STARTCHAR w
ENCODING 119
SWIDTH 1375 0
DWIDTH 11 0
BBX 10 8 0 0
BITMAP
CCC0
CCC0
CCC0
CCC0
CCC0
CCC0
FFC0
FF80
ENDCHAR
STARTCHAR x
ENCODING 120
SWIDTH 1375 0
DWIDTH 11 0
BBX 10 8 0 0
BITMAP
C0C0
E1C0
7380
3F00
3F00
7380
E1C0
C0C0
ENDCHAR
STARTCHAR y
ENCODING 121
SWIDTH 1375 0
DWIDTH 11 0
BBX 10 8 0 0
BITMAP
C0C0
C0C0
C0C0
FFC0
7FC0
00C0
7FC0
7F80
ENDCHAR
STARTCHAR z
ENCODING 122
SWIDTH 1375 0
DWIDTH 11 0
BBX 10 8 0 0
BITMAP
FFC0
FFC0
00C0
7FC0
FF80
C000
FFC0
FFC0
ENDCHAR
STARTCHAR braceleft
ENCODING 123
SWIDTH 625 0
DWIDTH 5 0
BBX 4 8 0 0
BITMAP
30
70
60
E0
E0
60
70
30
ENDCHAR
STARTCHAR bar
ENCODING 124
SWIDTH 375 0
DWIDTH 3 0
BBX 2 8 0 0
BITMAP
C0
C0
C0
C0
C0
C0
C0
C0
ENDCHAR
STARTCHAR braceright
ENCODING 125
SWIDTH 625 0
DWIDTH 5 0
BBX 4 8 0 0
BITMAP
C0
E0
60
70
70
60
E0
C0
ENDCHAR
STARTCHAR asciitilde
ENCODING 126
SWIDTH 625 0
DWIDTH 5 0
BBX 4 2 0 6
BITMAP
F0
F0
ENDCHAR
STARTCHAR hyphen.dup1
ENCODING 8208
SWIDTH 1375 0
DWIDTH 11 0
BBX 10 2 0 3
BITMAP
FFC0
FFC0
ENDCHAR
STARTCHAR .notdef
ENCODING -1
SWIDTH 500 0
DWIDTH 4 0
BBX 3 8 0 0
BITMAP
E0
A0
A0
A0
A0
A0
A0
E0
ENDCHAR
STARTCHAR .null
ENCODING -1
SWIDTH 0 0
DWIDTH 0 0
BBX 1 1 0 0
BITMAP
00
ENDCHAR
STARTCHAR nonmarkingreturn
ENCODING -1
SWIDTH 750 0
DWIDTH 6 0
BBX 1 1 0 0
BITMAP
00
ENDCHAR
ENDFONT
